<svg xmlns="http://www.w3.org/2000/svg" width="22.688" height="20.626" viewBox="0 0 22.688 20.626">
  <g id="Action-_-39---Action_-parameters_-params_-preferences_-setting_-settings_-filter-icon" data-name="Action-/-39---Action,-parameters,-params,-preferences,-setting,-settings,-filter-icon" transform="translate(-2.744 -2.495)">
    <path id="União_3" data-name="União 3" d="M-330.531-116.374a5.165,5.165,0,0,1-5.052-4.126h-9.385A1.031,1.031,0,0,1-346-121.531a1.031,1.031,0,0,1,1.031-1.031h9.385a5.165,5.165,0,0,1,5.052-4.125,5.166,5.166,0,0,1,5.053,4.125h1.135a1.031,1.031,0,0,1,1.031,1.031,1.031,1.031,0,0,1-1.031,1.031h-1.135A5.166,5.166,0,0,1-330.531-116.374Zm0-8.25a3.1,3.1,0,0,0-3.093,3.093,3.1,3.1,0,0,0,3.093,3.094,3.1,3.1,0,0,0,3.094-3.094A3.1,3.1,0,0,0-330.531-124.625Zm-8.25-2.062a5.165,5.165,0,0,1-5.052-4.126h-1.135A1.031,1.031,0,0,1-346-131.844a1.031,1.031,0,0,1,1.031-1.031h1.135A5.165,5.165,0,0,1-338.781-137a5.166,5.166,0,0,1,5.053,4.125h9.385a1.031,1.031,0,0,1,1.031,1.031,1.031,1.031,0,0,1-1.031,1.031h-9.385A5.166,5.166,0,0,1-338.781-126.687Zm0-8.25a3.1,3.1,0,0,0-3.093,3.093,3.1,3.1,0,0,0,3.093,3.094,3.1,3.1,0,0,0,3.094-3.094A3.1,3.1,0,0,0-338.781-134.937Z" transform="translate(348.744 139.495)" fill="#fff"/>
  </g>
</svg>
