<svg xmlns="http://www.w3.org/2000/svg" width="193.579" height="62.64" viewBox="0 0 193.579 62.64">
  <g id="Camada_x0020_1" transform="translate(0 0)">
    <path id="Caminho_36" data-name="Caminho 36" d="M23.9,62.64c3.8,0,8.217-5.479,12.444-12.254A13.686,13.686,0,0,1,23.9,48.28a13.694,13.694,0,0,1-12.447,2.105C15.683,57.161,20.106,62.64,23.9,62.64ZM40.96,42.473c1.151-2.075,2.261-4.125,3.306-6.054a23.227,23.227,0,0,0,1.215-2.23l.01-.014h0a23.9,23.9,0,1,0-43.173,0h0l.007.014a23.226,23.226,0,0,0,1.215,2.23c1.046,1.929,2.156,3.98,3.306,6.054.372.535.836,1.022,1.3,1.053a4.064,4.064,0,0,0,1.936-.856c.728-.5,1.421-1.032,2.129-1.557a28.382,28.382,0,0,1-4.3-4.339,32.241,32.241,0,0,1,1.553-7.056,3.374,3.374,0,0,0,1.408-.359,3.558,3.558,0,0,0,1.286-1.12v0l1.635-2.311h0l1.946-2.755a5.131,5.131,0,0,0,.775-1.608,2.6,2.6,0,0,0,.877.765,3.023,3.023,0,0,0,1.888.3c.768-.112,1.543-.206,2.325-.271s1.564-.1,2.3-.1,1.506.037,2.3.1,1.557.159,2.325.271a3.019,3.019,0,0,0,1.888-.3,2.648,2.648,0,0,0,.88-.765,5.047,5.047,0,0,0,.772,1.608l1.946,2.755h0l1.635,2.311v0a3.558,3.558,0,0,0,1.286,1.12,3.374,3.374,0,0,0,1.408.359A32.047,32.047,0,0,1,39.9,36.774a28.521,28.521,0,0,1-4.3,4.339c.7.525,1.4,1.059,2.125,1.557a4.064,4.064,0,0,0,1.936.856C40.127,43.495,40.588,43.007,40.96,42.473ZM23.9,2.921a2.351,2.351,0,0,1,1.157.413c1.31.954,2.63,1.939,3.9,3.015a50.1,50.1,0,0,1,3.709,3.506,2.191,2.191,0,0,1,.572,2.413c-.582,1.2-1.154,2.413-1.689,3.655s-1.032,2.5-1.5,3.78a1.59,1.59,0,0,1-.322.528.6.6,0,0,1-.274.311.843.843,0,0,1-.366.091,1.97,1.97,0,0,1-.877.054,29.733,29.733,0,0,0-4.308-.345,29.741,29.741,0,0,0-4.312.345,1.97,1.97,0,0,1-.877-.054.856.856,0,0,1-.366-.091.626.626,0,0,1-.274-.311,1.59,1.59,0,0,1-.322-.528q-.7-1.914-1.5-3.78c-.535-1.242-1.107-2.454-1.689-3.655a2.2,2.2,0,0,1,.572-2.413,50.1,50.1,0,0,1,3.709-3.506c1.266-1.076,2.586-2.061,3.9-3.015A2.351,2.351,0,0,1,23.9,2.921ZM3.834,17.47q-.355,1.208-.673,2.3-.3,1.041-.585,1.99a2.4,2.4,0,0,0,.166,1.811c.278.508.552,1.019.826,1.523s.545,1,.816,1.492a1.492,1.492,0,0,0,1.259.836c.528.02,1.076.044,1.648.064.592.024,1.212.051,1.858.074a2.063,2.063,0,0,0,1.784-.907q.665-.934,1.4-1.98c.525-.741,1.08-1.526,1.668-2.362a2.728,2.728,0,0,0,.413-2.768c-.389-.8-.789-1.6-1.181-2.416s-.8-1.648-1.2-2.484a1.576,1.576,0,0,0-2.183-.778l-2.467.971c-.738.291-1.445.565-2.112.829A2.657,2.657,0,0,0,3.834,17.47Zm1.012-5.388c3.821-4.961,8.146-8.305,13.138-9.236,1.293-.24.921.663.721.846-2.017,1.872-3.547,3.641-5.564,5.516a6.671,6.671,0,0,1-2.975,1.912c-1.689.623-3.364,1.3-5.07,1.872-.772.261-.552-.579-.25-.91ZM43.969,17.47q.355,1.208.673,2.3c.206.694.4,1.357.585,1.99a2.383,2.383,0,0,1-.166,1.811c-.278.508-.552,1.019-.826,1.523s-.545,1-.816,1.492a1.492,1.492,0,0,1-1.259.836c-.525.02-1.076.044-1.648.064-.592.024-1.212.051-1.855.074a2.065,2.065,0,0,1-1.787-.907q-.665-.934-1.4-1.98c-.525-.741-1.08-1.526-1.668-2.362a2.728,2.728,0,0,1-.413-2.768c.389-.8.789-1.6,1.181-2.416s.8-1.648,1.2-2.484a1.576,1.576,0,0,1,2.183-.778l2.467.971c.738.291,1.445.565,2.112.829a2.657,2.657,0,0,1,1.438,1.807ZM42.96,12.082c-3.824-4.961-8.149-8.305-13.138-9.236-1.3-.24-.924.663-.724.846,2.017,1.872,3.547,3.641,5.564,5.516a6.672,6.672,0,0,0,2.975,1.912c1.689.623,3.364,1.3,5.07,1.872C43.478,13.253,43.258,12.414,42.96,12.082Z" transform="translate(0 0)" fill="#fff" fill-rule="evenodd"/>
    <path id="Caminho_37" data-name="Caminho 37" d="M33.569,116.268c-10.82-3.5-14.4,11.216-18.959,2.169,2.031,8.22,12.989,10.292,18.959,4.63,5.966,5.662,16.925,3.591,18.955-4.63-4.562,9.046-8.139-5.665-18.955-2.169Z" transform="translate(-9.666 -76.556)" fill="#fff" fill-rule="evenodd"/>
    <path id="Caminho_38" data-name="Caminho 38" d="M174.866,52.074a12.812,12.812,0,0,1-1.594,5.791c-3.242,5.3-9.6,1.2-8.691-9.039A13.119,13.119,0,0,1,166.2,43.15C169.783,37.637,175.743,42.145,174.866,52.074Zm5.32,10.728c1.134-.971,2.149-1.09,4.23-3.56a13.772,13.772,0,0,0,2.575-5.188,14.7,14.7,0,0,0-1.763-11.216,12.934,12.934,0,0,1-.836-1.181c.034-.024.095-.085.112-.051l1.157-.244a4.576,4.576,0,0,0,1.256-.45c2.125-1.12,2.636-4.789-1.756-5.279-2.833-.315-7.357.47-12.769,0-7.192-.626-15.3,1.635-18.553,7.865a14.275,14.275,0,0,0,4.664,18.85c8.068,5.175,12.183,1.086,14.843,5.171,1.191,1.834,1.7,8.346-3.391,8.745a6.611,6.611,0,0,1-4.867-1.7c-2.515-2.3-2.322-6.8-6.264-7.249-8.2-.948-10.007,10.007.186,13.036,7.08,2.108,16.8,1.858,22.492-1.79,2.606-1.672,5.117-4.125,4.914-8.454a7.569,7.569,0,0,0-3.919-6.173Z" transform="translate(-100.564 -23.508)" fill="#fff" fill-rule="evenodd"/>
    <path id="Caminho_39" data-name="Caminho 39" d="M280.741,64.212c1.3,5.418,16.343,5.462,14.935-.091-.569-2.244-3.168-.074-3.208-6.9-.024-4.007.315-17.784-.369-19.829-.66-1.97-2.031-2.247-4.481-1.99-1.966.2-9.276,1.763-10.552,2.775a2.175,2.175,0,0,0-.816,2.362c.193.829,1.083,1.306,1.753,1.672,1.98,1.09,2,2.071,2,4.748q-.005,3.34,0,6.684c0,2.21.166,4.217-.772,5.99a3.875,3.875,0,0,1-4.457,2.132c-3.425-.887-2.555-6.789-2.555-10.765,0-3.107.362-10.6-.213-13.189-.491-2.2-1.77-2.589-4.169-2.447a36.392,36.392,0,0,0-5.533,1.063c-2.247.592-6.511.961-6.352,3.669.162,2.782,3.9.927,3.861,6.241q-.025,3.345-.03,6.687c0,4.234-.217,8.43,1.929,11.429,3.706,5.178,12.285,4.819,17.108,1.289a16.683,16.683,0,0,1,1.922-1.53Z" transform="translate(-169.327 -23.367)" fill="#fff" fill-rule="evenodd"/>
    <path id="Caminho_40" data-name="Caminho 40" d="M384.584,41.44c-.3-2.755-.8-5.564-4.183-5.428a30.555,30.555,0,0,0-9.662,2.44c-1.662.931-2.227,2.806-.65,3.685a3.34,3.34,0,0,1,2.89,3.834q.025,7.544.051,15.091c-.1,1.861-.4,2.274-2.092,3.188-2.261,1.976-.433,4.1,1.892,4.136q6.127.071,12.251.149c2.359.149,4.068-1.7,2.89-4.034-.833-1.279-2.359-1.313-2.491-3.834V50.3c.264-2.339,1.327-4.532,4.085-4.779,2.173.2,2.9,4.281,5.777,3.885,3.005-.382,5.462-2.359,5.428-6.674A6.254,6.254,0,0,0,394.5,35.71a14.868,14.868,0,0,0-9.913,5.73Z" transform="translate(-244.224 -23.625)" fill="#fff" fill-rule="evenodd"/>
    <path id="Caminho_41" data-name="Caminho 41" d="M479.121,64.212c1.3,5.418,16.343,5.462,14.935-.091-.569-2.244-3.168-.074-3.208-6.9-.024-4.007.315-17.784-.369-19.829-.66-1.97-2.031-2.247-4.481-1.99-1.966.2-9.276,1.763-10.552,2.775a2.175,2.175,0,0,0-.816,2.362c.193.829,1.083,1.306,1.75,1.672,1.983,1.09,2.007,2.071,2,4.748q-.005,3.34,0,6.684c0,2.21.166,4.217-.772,5.99a3.875,3.875,0,0,1-4.457,2.132C469.73,60.879,470.6,54.977,470.6,51c0-3.107.362-10.6-.213-13.189-.491-2.2-1.77-2.589-4.169-2.447a36.393,36.393,0,0,0-5.533,1.063c-2.247.592-6.511.961-6.352,3.669.162,2.782,3.9.927,3.861,6.241q-.025,3.345-.03,6.687c0,4.234-.217,8.43,1.929,11.429,3.7,5.178,12.285,4.819,17.108,1.289a16.4,16.4,0,0,1,1.922-1.53Z" transform="translate(-300.57 -23.367)" fill="#fff" fill-rule="evenodd"/>
  </g>
</svg>
